<?xml version="1.0" encoding="utf-8"?>
<!-- Generator: Adobe Illustrator 19.2.1, SVG Export Plug-In . SVG Version: 6.00 Build 0)  -->
<svg version="1.1" id="layer" xmlns="http://www.w3.org/2000/svg" xmlns:xlink="http://www.w3.org/1999/xlink" x="0px" y="0px"
	 viewBox="0 0 652 652" style="enable-background:new 0 0 652 652;" xml:space="preserve">
<style type="text/css">
	.st0{fill-rule:evenodd;clip-rule:evenodd;fill:#26B7BC;}
	.st1{fill-rule:evenodd;clip-rule:evenodd;fill:#E60033;}
</style>
<g>
	<path class="st0" d="M416.2,320.8c12.7-12.7,20.6-30.3,20.6-49.7c0-38.8-31.5-70.2-70.2-70.2c-38.8,0-70.2,31.5-70.2,70.2
		c0,19.4,7.9,37,20.6,49.7c-12.7,12.7-20.6,30.3-20.6,49.7c0,38.8,31.5,70.2,70.2,70.2c38.8,0,70.2-31.5,70.2-70.2
		C436.8,351.1,428.9,333.5,416.2,320.8"/>
	<path class="st1" d="M282.4,405.6V265.1c0-19.4-15.7-35.1-35.1-35.1s-35.1,15.7-35.1,35.1v140.5c0,19.4,15.7,35.1,35.1,35.1
		C266.7,440.7,282.4,425,282.4,405.6"/>
	<path class="st1" d="M585.1,230h-99.3c-19.4,0-35.1,15.7-35.1,35.1c0,19.4,15.7,35.1,35.1,35.1h14.6v105.4
		c0,19.4,15.7,35.1,35.1,35.1c19.4,0,35.1-15.7,35.1-35.1V300.2h14.5c19.4,0,35.1-15.7,35.1-35.1C620.3,245.7,604.5,230,585.1,230"
		/>
	<path class="st1" d="M163.2,440.7c19.4,0,35.1-15.7,35.1-35.1c0-19.4-15.7-35.1-35.1-35.1h-37.6c-19.4,0-35.1-15.7-35.1-35.1
		c0-19.4,15.7-35.1,35.1-35.1h37.6c19.4,0,35.1-15.7,35.1-35.1c0-19.4-15.7-35.1-35.1-35.1h-37.6c-58.2,0-105.4,47.2-105.4,105.4
		c0,58.2,47.2,105.4,105.4,105.4H163.2z"/>
	<path class="st1" d="M316.9,320.8c-12.7-12.7-20.6-30.3-20.6-49.7c0-37.4,29.3-68,66.2-70.1c-6,0.9-11.8,3.7-16.5,8.4
		c-11.5,11.5-11.6,30-0.3,41.3l130.4,130.1c13.7,13.7,13.7,36,0,49.7c-13.7,13.7-36,13.7-49.7,0L316.9,320.8z"/>
</g>
</svg>
